{
  "accessors": [
    {
      "bufferView": 2,
      "componentType": 5126,
      "count": 65532,
      "max": [
        102.47023010253906,
        62.1339225769043,
        84.80702209472656
      ],
      "min": [
        -188.90460205078125,
        -116.95291900634766,
        -30.325220108032227
      ],
      "type": "VEC3"
    },
    {
      "bufferView": 2,
      "byteOffset": 786384,
      "componentType": 5126,
      "count": 65532,
      "max": [
        0.9999241232872009,
        0.9999992251396179,
        0.9999945759773254
      ],
      "min": [
        -0.999976634979248,
        -0.9999909400939941,
        -0.9999959468841553
      ],
      "type": "VEC3"
    },
    {
      "bufferView": 1,
      "componentType": 5126,
      "count": 65532,
      "max": [
        0.9999930262565613,
        0.9452170133590698
      ],
      "min": [
        0.00015300000086426735,
        0.00019999999494757503
      ],
      "type": "VEC2"
    },
    {
      "bufferView": 0,
      "componentType": 5125,
      "count": 379446,
      "type": "SCALAR"
    },
    {
      "bufferView": 2,
      "byteOffset": 1572768,
      "componentType": 5126,
      "count": 11854,
      "max": [
        -29.17788314819336,
        61.900394439697266,
        84.8740463256836
      ],
      "min": [
        -190.4686279296875,
        -116.80740356445313,
        -13.55040454864502
      ],
      "type": "VEC3"
    },
    {
      "bufferView": 2,
      "byteOffset": 1715016,
      "componentType": 5126,
      "count": 11854,
      "max": [
        0.9998706579208374,
        0.999997079372406,
        0.9999731183052063
      ],
      "min": [
        -0.9999938607215881,
        -0.999045729637146,
        -0.9999518394470215
      ],
      "type": "VEC3"
    },
    {
      "bufferView": 1,
      "byteOffset": 524256,
      "componentType": 5126,
      "count": 11854,
      "max": [
        0.9761850237846375,
        0.9218339920043945
      ],
      "min": [
        0.06241200119256973,
        0.007406000047922134
      ],
      "type": "VEC2"
    },
    {
      "bufferView": 0,
      "byteOffset": 1517784,
      "componentType": 5125,
      "count": 59124,
      "type": "SCALAR"
    }
  ],
  "asset": {
    "extras": {
      "author": "gianpego (https://sketchfab.com/gianpego)",
      "license": "CC-BY-4.0 (http://creativecommons.org/licenses/by/4.0/)",
      "source": "https://sketchfab.com/3d-models/air-jordan-1-1985-2614cef9a3724ec5852144446fbb726f",
      "title": "Air Jordan 1 1985"
    },
    "generator": "Sketchfab-13.24.0",
    "version": "2.0"
  },
  "bufferViews": [
    {
      "buffer": 0,
      "byteLength": 1754280,
      "name": "floatBufferViews",
      "target": 34963
    },
    {
      "buffer": 0,
      "byteLength": 619088,
      "byteOffset": 1754280,
      "byteStride": 8,
      "name": "floatBufferViews",
      "target": 34962
    },
    {
      "buffer": 0,
      "byteLength": 1857264,
      "byteOffset": 2373368,
      "byteStride": 12,
      "name": "floatBufferViews",
      "target": 34962
    }
  ],
  "buffers": [
    {
      "byteLength": 4230632,
      "uri": "scene.bin"
    }
  ],
  "extensionsRequired": [
    "KHR_materials_pbrSpecularGlossiness"
  ],
  "extensionsUsed": [
    "KHR_materials_pbrSpecularGlossiness"
  ],
  "images": [
    {
      "uri": "textures/pegolo_edited_model_diffuse.jpeg"
    }
  ],
  "materials": [
    {
      "doubleSided": true,
      "extensions": {
        "KHR_materials_pbrSpecularGlossiness": {
          "diffuseFactor": [
            1.0,
            1.0,
            1.0,
            1.0
          ],
          "diffuseTexture": {
            "index": 0
          },
          "glossinessFactor": 1.0,
          "specularFactor": [
            0.0,
            0.0,
            0.0
          ]
        }
      },
      "name": "pegolo_edited_model"
    }
  ],
  "meshes": [
    {
      "name": "Object_0",
      "primitives": [
        {
          "attributes": {
            "NORMAL": 1,
            "POSITION": 0,
            "TEXCOORD_0": 2
          },
          "indices": 3,
          "material": 0,
          "mode": 4
        }
      ]
    },
    {
      "name": "Object_1",
      "primitives": [
        {
          "attributes": {
            "NORMAL": 5,
            "POSITION": 4,
            "TEXCOORD_0": 6
          },
          "indices": 7,
          "material": 0,
          "mode": 4
        }
      ]
    }
  ],
  "nodes": [
    {
      "children": [
        1
      ],
      "matrix": [
        1.0,
        -9.585450622349618e-19,
        -1.6080940355957593e-16,
        0.0,
        7.395570986446986e-32,
        -0.9999822378158569,
        0.005960646551102178,
        0.0,
        -1.6081226229577292e-16,
        -0.005960646551102178,
        -0.9999822378158569,
        0.0,
        0.0,
        0.0,
        0.0,
        1.0
      ],
      "name": "Sketchfab_model"
    },
    {
      "children": [
        2,
        3
      ],
      "name": "pegolo_edited_model.obj.cleaner.materialmerger.gles"
    },
    {
      "mesh": 0,
      "name": "Object_2"
    },
    {
      "mesh": 1,
      "name": "Object_3"
    }
  ],
  "samplers": [
    {
      "magFilter": 9729,
      "minFilter": 9987,
      "wrapS": 10497,
      "wrapT": 10497
    }
  ],
  "scene": 0,
  "scenes": [
    {
      "name": "Sketchfab_Scene",
      "nodes": [
        0
      ]
    }
  ],
  "textures": [
    {
      "sampler": 0,
      "source": 0
    }
  ]
}
